<svg
        width="30"
        height="30"
        viewBox="0 0 30 30"
        fill="none"
        xmlns="http://www.w3.org/2000/svg"
>
    <path
            d="M20.3654 16.0168L8.625 16.0168C8.4471 16.0168 8.29847 15.9571 8.17909 15.8377C8.0597 15.7184 8 15.5697 8 15.3918C8 15.2139 8.0597 15.0653 8.17909 14.9459C8.29847 14.8265 8.4471 14.7668 8.625 14.7668L20.3654 14.7668L15.6827 10.0842C15.5657 9.96718 15.5032 9.82375 15.4952 9.65387C15.4872 9.484 15.5497 9.33255 15.6827 9.19953C15.8157 9.06651 15.9631 9 16.125 9C16.2869 9 16.4343 9.06651 16.5673 9.19953L22.0529 14.6851C22.2548 14.887 22.3558 15.1226 22.3558 15.3918C22.3558 15.6611 22.2548 15.8966 22.0529 16.0986L16.5673 21.5842C16.4503 21.7011 16.3069 21.7636 16.137 21.7717C15.9672 21.7797 15.8157 21.7172 15.6827 21.5842C15.5497 21.4511 15.4832 21.3037 15.4832 21.1418C15.4832 20.98 15.5497 20.8326 15.6827 20.6995L20.3654 16.0168Z"
            fill="#EF5F21"
    />
</svg>