<svg
        width="30"
        height="30"
        viewBox="0 0 30 30"
        fill="none"
        xmlns="http://www.w3.org/2000/svg"
>
    <path
            d="M14.375 19.2404V7.5C14.375 7.3221 14.4347 7.17347 14.5541 7.05409C14.6735 6.9347 14.8221 6.875 15 6.875C15.1779 6.875 15.3265 6.9347 15.4459 7.05409C15.5653 7.17347 15.625 7.3221 15.625 7.5V19.2404L20.3077 14.5577C20.4247 14.4407 20.5681 14.3782 20.738 14.3702C20.9078 14.3622 21.0593 14.4247 21.1923 14.5577C21.3253 14.6907 21.3918 14.8381 21.3918 15C21.3918 15.1619 21.3253 15.3093 21.1923 15.4423L15.7067 20.9279C15.5048 21.1298 15.2692 21.2308 15 21.2308C14.7308 21.2308 14.4952 21.1298 14.2933 20.9279L8.80769 15.4423C8.69071 15.3253 8.62821 15.1819 8.62019 15.012C8.61217 14.8422 8.67467 14.6907 8.80769 14.5577C8.94071 14.4247 9.08815 14.3582 9.25 14.3582C9.41186 14.3582 9.55929 14.4247 9.69232 14.5577L14.375 19.2404Z"
            fill="#EF5F21"
    />
</svg>