<svg width="60" height="60" viewBox="0 0 60 60" fill="none" xmlns="http://www.w3.org/2000/svg">
    <path d="M44.8269 52.5C40.6122 52.5 36.2917 51.4447 31.8654 49.3341C27.4391 47.2236 23.3269 44.2612 19.5288 40.4471C15.7307 36.633 12.7764 32.5208 10.6659 28.1106C8.55529 23.7003 7.5 19.3878 7.5 15.1731C7.5 14.4093 7.75 13.7729 8.25 13.2637C8.75 12.7546 9.375 12.5 10.125 12.5H16.3077C16.9872 12.5 17.5801 12.7139 18.0866 13.1418C18.593 13.5697 18.9359 14.1186 19.1154 14.7884L20.3557 20.75C20.4712 21.4487 20.4503 22.0593 20.2932 22.5817C20.1362 23.1042 19.859 23.532 19.4616 23.8654L13.9759 28.9807C15.0016 30.843 16.1354 32.5729 17.3774 34.1707C18.6194 35.7684 19.9439 37.2821 21.3509 38.7116C22.8029 40.1635 24.3654 41.5136 26.0384 42.762C27.7115 44.0104 29.5481 45.1891 31.5481 46.2981L36.8942 40.8558C37.3013 40.4167 37.7588 40.1274 38.2668 39.988C38.7748 39.8485 39.3365 39.8205 39.9519 39.9038L45.2116 40.9808C45.8911 41.1474 46.4423 41.4896 46.8654 42.0072C47.2885 42.5248 47.5 43.1186 47.5 43.7884V49.875C47.5 50.625 47.2454 51.25 46.7363 51.75C46.2271 52.25 45.5907 52.5 44.8269 52.5ZM12.8029 26.6346L17.6009 22.2211C17.7612 22.0929 17.8654 21.9166 17.9134 21.6923C17.9615 21.4679 17.9535 21.2596 17.8894 21.0673L16.7788 15.7692C16.7147 15.5128 16.6026 15.3205 16.4423 15.1923C16.2821 15.0641 16.0737 15 15.8173 15H10.6875C10.4952 15 10.335 15.0641 10.2067 15.1923C10.0785 15.3205 10.0144 15.4808 10.0144 15.6731C10.0625 17.3814 10.3301 19.1651 10.8173 21.0241C11.3045 22.883 11.9663 24.7532 12.8029 26.6346ZM33.9279 47.4711C35.617 48.3077 37.4175 48.9263 39.3293 49.3269C41.2412 49.7276 42.9071 49.9423 44.3269 49.9711C44.5192 49.9711 44.6795 49.907 44.8077 49.7789C44.9359 49.6507 45 49.4904 45 49.2981V44.2789C45 44.0225 44.9359 43.8141 44.8077 43.6539C44.6795 43.4936 44.4872 43.3814 44.2308 43.3173L39.6058 42.3702C39.4135 42.3061 39.2452 42.2981 39.1009 42.3462C38.9567 42.3942 38.8045 42.4984 38.6442 42.6587L33.9279 47.4711ZM41.2571 30C38.1466 30 35.4928 28.9038 33.2957 26.7114C31.0986 24.5191 30 21.8677 30 18.7571C30 15.6466 31.0962 12.9928 33.2886 10.7957C35.4809 8.59856 38.1323 7.5 41.2429 7.5C44.3534 7.5 47.0072 8.59617 49.2043 10.7885C51.4014 12.9809 52.5 15.6323 52.5 18.7429C52.5 21.8534 51.4038 24.5072 49.2115 26.7043C47.0191 28.9014 44.3677 30 41.2571 30ZM41.25 25.9616C41.5064 25.9616 41.7308 25.8654 41.9231 25.6731C42.1154 25.4808 42.2116 25.2564 42.2116 25V17.9808C42.2116 17.7243 42.1154 17.5 41.9231 17.3077C41.7308 17.1154 41.5064 17.0192 41.25 17.0192C40.9936 17.0192 40.7692 17.1154 40.5769 17.3077C40.3846 17.5 40.2884 17.7243 40.2884 17.9808V25C40.2884 25.2564 40.3846 25.4808 40.5769 25.6731C40.7692 25.8654 40.9936 25.9616 41.25 25.9616ZM41.25 14.2308C41.5833 14.2308 41.875 14.1058 42.125 13.8558C42.375 13.6058 42.5 13.3141 42.5 12.9808C42.5 12.6474 42.375 12.3558 42.125 12.1058C41.875 11.8558 41.5833 11.7308 41.25 11.7308C40.9167 11.7308 40.625 11.8558 40.375 12.1058C40.125 12.3558 40 12.6474 40 12.9808C40 13.3141 40.125 13.6058 40.375 13.8558C40.625 14.1058 40.9167 14.2308 41.25 14.2308Z" fill="#EF5F21"/>
</svg>
