<svg
        width="60"
        height="60"
        viewBox="0 0 60 60"
        fill="none"
        xmlns="http://www.w3.org/2000/svg"
>
    <path
            d="M27.375 33.5769L22.8846 29.1009C22.6507 28.867 22.3662 28.742 22.0313 28.7259C21.6963 28.7099 21.391 28.8398 21.1154 29.1154C20.8493 29.3814 20.7163 29.6763 20.7163 30C20.7163 30.3237 20.8493 30.6186 21.1154 30.8846L25.9616 35.7308C26.3654 36.1346 26.8365 36.3366 27.375 36.3366C27.9135 36.3366 28.3846 36.1346 28.7884 35.7308L38.8846 25.6346C39.1282 25.391 39.2556 25.1042 39.2668 24.7741C39.2781 24.4439 39.1507 24.141 38.8846 23.8654C38.609 23.5898 38.3117 23.4495 37.9928 23.4447C37.6739 23.4399 37.3766 23.5753 37.1009 23.8509L27.375 33.5769ZM21.6731 51.5385L18.3846 46.0385L12.1827 44.7308C11.6859 44.6379 11.2901 44.371 10.9952 43.9303C10.7003 43.4896 10.5785 43.0209 10.6298 42.5241L11.2211 36.1346L7.01438 31.3366C6.66184 30.9744 6.48557 30.5288 6.48557 30C6.48557 29.4712 6.66184 29.0257 7.01438 28.6634L11.2211 23.8654L10.6298 17.4759C10.5785 16.9792 10.7003 16.5104 10.9952 16.0697C11.2901 15.629 11.6859 15.3622 12.1827 15.2692L18.3846 13.9615L21.6731 8.46151C21.9423 8.01601 22.3045 7.70753 22.7596 7.53607C23.2148 7.36457 23.6859 7.3878 24.1731 7.60576L30 10.0673L35.8269 7.60576C36.3141 7.3878 36.7853 7.36457 37.2404 7.53607C37.6955 7.70753 38.0577 8.01601 38.3269 8.46151L41.6154 13.9615L47.8173 15.2692C48.3141 15.3622 48.7099 15.629 49.0048 16.0697C49.2997 16.5104 49.4215 16.9792 49.3702 17.4759L48.7789 23.8654L52.9856 28.6634C53.3382 29.0257 53.5144 29.4712 53.5144 30C53.5144 30.5288 53.3382 30.9744 52.9856 31.3366L48.7789 36.1346L49.3702 42.5241C49.4215 43.0209 49.2997 43.4896 49.0048 43.9303C48.7099 44.371 48.3141 44.6379 47.8173 44.7308L41.6154 46.0385L38.3269 51.5385C38.0577 51.984 37.6955 52.2925 37.2404 52.4639C36.7853 52.6354 36.3141 52.6122 35.8269 52.3943L30 49.9327L24.1731 52.3943C23.6859 52.6122 23.2148 52.6354 22.7596 52.4639C22.3045 52.2925 21.9423 51.984 21.6731 51.5385ZM23.625 49.875L30 47.2211L36.4039 49.875L40 43.875L46.875 42.3461L46.25 35.25L50.875 30L46.25 24.7211L46.875 17.625L40 16.125L36.375 10.125L30 12.7789L23.5961 10.125L20 16.125L13.125 17.625L13.75 24.7211L9.125 30L13.75 35.25L13.125 42.375L20 43.875L23.625 49.875Z"
            fill="#EF5F21"
    />
</svg>