<svg width="60" height="60" viewBox="0 0 60 60" fill="none" xmlns="http://www.w3.org/2000/svg">
    <path d="M28.75 49.2836V30.7164L12.5 21.3077V39.0096C12.5 39.266 12.5641 39.5064 12.6923 39.7307C12.8205 39.9551 13.0128 40.1474 13.2692 40.3077L28.75 49.2836ZM31.25 49.2836L46.7308 40.3077C46.9872 40.1474 47.1795 39.9551 47.3077 39.7307C47.4359 39.5064 47.5 39.266 47.5 39.0096V21.3077L31.25 30.7164V49.2836ZM27.9807 51.7164L12.0192 42.5192C11.3878 42.1571 10.8934 41.6651 10.5361 41.0432C10.1787 40.4214 10 39.7484 10 39.024V20.9759C10 20.2516 10.1787 19.5785 10.5361 18.9567C10.8934 18.3349 11.3878 17.8429 12.0192 17.4807L27.9807 8.28361C28.6122 7.92144 29.2852 7.74036 30 7.74036C30.7148 7.74036 31.3878 7.92144 32.0192 8.28361L47.9808 17.4807C48.6122 17.8429 49.1066 18.3349 49.4639 18.9567C49.8213 19.5785 50 20.2516 50 20.9759V39.024C50 39.7484 49.8213 40.4214 49.4639 41.0432C49.1066 41.6651 48.6122 42.1571 47.9808 42.5192L32.0192 51.7164C31.3878 52.0785 30.7148 52.2596 30 52.2596C29.2852 52.2596 28.6122 52.0785 27.9807 51.7164ZM39.2789 23.1875L46.0625 19.2836L30.7693 10.4327C30.5128 10.2724 30.2564 10.1923 30 10.1923C29.7436 10.1923 29.4872 10.2724 29.2307 10.4327L23.25 13.8702L39.2789 23.1875ZM30 28.5673L36.75 24.649L20.6875 15.3654L13.9375 19.2836L30 28.5673Z" fill="#EF5F21"/>
</svg>
