<svg
        width="60"
        height="60"
        viewBox="0 0 60 60"
        fill="none"
        xmlns="http://www.w3.org/2000/svg"
>
    <path
            d="M14.9887 47.2885C13.1693 47.2885 11.6266 46.6528 10.3606 45.3814C9.09458 44.1101 8.46156 42.5662 8.46156 40.75H7.01925C6.44717 40.75 5.96758 40.5565 5.5805 40.1695C5.1935 39.7825 5 39.3029 5 38.7307V33.0577V27.3846V21.7115V16.0384C5 14.8878 5.38542 13.9271 6.15625 13.1562C6.92708 12.3854 7.88783 12 9.0385 12H38.0769C39.1875 12 40.1382 12.3954 40.9291 13.1863C41.72 13.9771 42.1154 14.9279 42.1154 16.0384V21.0384H45.8654C46.5049 21.0384 47.1106 21.1815 47.6828 21.4676C48.2548 21.7536 48.726 22.149 49.0962 22.6538L56.1346 32.1298C56.2693 32.2981 56.3702 32.4831 56.4376 32.6851C56.5049 32.887 56.5385 33.1057 56.5385 33.3413V38.7307C56.5385 39.3029 56.345 39.7825 55.9579 40.1695C55.5709 40.5565 55.0914 40.75 54.5193 40.75H52.5C52.5 42.5662 51.8632 44.1101 50.5897 45.3814C49.3161 46.6528 47.7696 47.2885 45.9502 47.2885C44.1309 47.2885 42.5882 46.6528 41.3221 45.3814C40.0561 44.1101 39.4231 42.5662 39.4231 40.75H21.5385C21.5385 42.5769 20.9017 44.1234 19.6281 45.3894C18.3546 46.6555 16.8081 47.2885 14.9887 47.2885ZM15 44.7884C16.125 44.7884 17.0793 44.3966 17.863 43.613C18.6467 42.8293 19.0385 41.875 19.0385 40.75C19.0385 39.625 18.6467 38.6707 17.863 37.8871C17.0793 37.1034 16.125 36.7116 15 36.7116C13.875 36.7116 12.9207 37.1034 12.1371 37.8871C11.3534 38.6707 10.9616 39.625 10.9616 40.75C10.9616 41.875 11.3534 42.8293 12.1371 43.613C12.9207 44.3966 13.875 44.7884 15 44.7884ZM7.5 38.25H9.11544C9.47119 37.1474 10.1955 36.1987 11.2885 35.4039C12.3815 34.609 13.6186 34.2116 15 34.2116C16.3173 34.2116 17.5385 34.601 18.6635 35.3798C19.7885 36.1586 20.5289 37.1154 20.8846 38.25H39.6154V16.0384C39.6154 15.5897 39.4711 15.2211 39.1827 14.9327C38.8942 14.6442 38.5256 14.5 38.0769 14.5H9.0385C8.65388 14.5 8.30131 14.6603 7.98081 14.9808C7.66027 15.3013 7.5 15.6539 7.5 16.0384V38.25ZM45.9616 44.7884C47.0866 44.7884 48.0409 44.3966 48.8246 43.613C49.6082 42.8293 50 41.875 50 40.75C50 39.625 49.6082 38.6707 48.8246 37.8871C48.0409 37.1034 47.0866 36.7116 45.9616 36.7116C44.8366 36.7116 43.8822 37.1034 43.0986 37.8871C42.3149 38.6707 41.9231 39.625 41.9231 40.75C41.9231 41.875 42.3149 42.8293 43.0986 43.613C43.8822 44.3966 44.8366 44.7884 45.9616 44.7884ZM42.1154 33.25H53.8943L47.0192 24.1634C46.859 23.9711 46.6747 23.8189 46.4664 23.7067C46.258 23.5945 46.0257 23.5384 45.7692 23.5384H42.1154V33.25Z"
            fill="#EF5F21"
    />
</svg>