<svg width="30" height="30" viewBox="0 0 30 30" fill="none" xmlns="http://www.w3.org/2000/svg">
<path d="M24.4643 14.327C24.2958 14.327 24.1481 14.2671 24.0212 14.1473C23.8944 14.0275 23.8208 13.8791 23.8005 13.702C23.5296 11.6042 22.6478 9.80896 21.1551 8.31616C19.6623 6.82339 17.867 5.94159 15.7692 5.67076C15.5921 5.64992 15.4437 5.57701 15.3239 5.45201C15.2041 5.32701 15.1442 5.17597 15.1442 4.99888C15.1442 4.82178 15.2051 4.67354 15.3269 4.55417C15.4487 4.43477 15.5962 4.38789 15.7692 4.41354C18.234 4.67314 20.3333 5.66993 22.0673 7.40391C23.8013 9.13789 24.7981 11.2373 25.0577 13.702C25.0833 13.8751 25.0356 14.0225 24.9145 14.1443C24.7934 14.2661 24.6433 14.327 24.4643 14.327ZM19.3396 14.327C19.2029 14.327 19.0817 14.2813 18.976 14.19C18.8702 14.0986 18.7909 13.9768 18.738 13.8246C18.5232 13.0762 18.1414 12.4196 17.5926 11.8546C17.0437 11.2897 16.395 10.9079 15.6466 10.7092C15.4944 10.6567 15.3726 10.5778 15.2812 10.4727C15.1899 10.3676 15.1442 10.2414 15.1442 10.0943C15.1442 9.88403 15.2139 9.71681 15.3534 9.5926C15.4928 9.46841 15.6595 9.43196 15.8534 9.48323C16.8759 9.72083 17.757 10.2097 18.4965 10.9499C19.236 11.6901 19.7332 12.5794 19.988 13.6179C20.0393 13.8118 19.9966 13.9784 19.8599 14.1179C19.7233 14.2573 19.5498 14.327 19.3396 14.327ZM23.6635 25.0001C21.5561 25.0001 19.3958 24.4724 17.1827 23.4171C14.9695 22.3619 12.9134 20.8807 11.0144 18.9736C9.11536 17.0666 7.63821 15.0105 6.58294 12.8054C5.52765 10.6002 5 8.44398 5 6.3366C5 5.95473 5.125 5.63651 5.375 5.38194C5.625 5.12736 5.9375 5.00007 6.3125 5.00007H9.40384C9.74359 5.00007 10.0401 5.10704 10.2933 5.32098C10.5465 5.53491 10.718 5.80935 10.8077 6.14429L11.4279 9.12507C11.4856 9.47443 11.4752 9.77972 11.3966 10.0409C11.3181 10.3022 11.1795 10.5161 10.9808 10.6828L8.23797 13.2404C8.7508 14.1716 9.31772 15.0365 9.93872 15.8354C10.5597 16.6343 11.2219 17.3911 11.9255 18.1059C12.6514 18.8318 13.4327 19.5069 14.2692 20.1311C15.1058 20.7553 16.024 21.3446 17.024 21.8991L19.6971 19.1779C19.9006 18.9584 20.1294 18.8138 20.3834 18.7441C20.6374 18.6743 20.9183 18.6603 21.226 18.702L23.8558 19.2404C24.1955 19.3238 24.4712 19.4949 24.6827 19.7537C24.8942 20.0125 25 20.3094 25 20.6443V23.6876C25 24.0626 24.8727 24.3751 24.6181 24.6251C24.3636 24.8751 24.0453 25.0001 23.6635 25.0001ZM7.65144 12.0674L10.0505 9.86063C10.1306 9.79653 10.1827 9.7084 10.2067 9.59623C10.2308 9.48404 10.2268 9.37987 10.1947 9.28373L9.63941 6.6347C9.60736 6.50649 9.55128 6.41033 9.47116 6.34623C9.39103 6.28212 9.28686 6.25007 9.15866 6.25007H6.59375C6.4976 6.25007 6.41748 6.28212 6.35337 6.34623C6.28927 6.41033 6.25722 6.49046 6.25722 6.5866C6.28126 7.44077 6.41507 8.3326 6.65866 9.2621C6.90224 10.1916 7.23317 11.1267 7.65144 12.0674ZM18.2139 22.4856C19.0585 22.9039 19.9587 23.2132 20.9147 23.4135C21.8706 23.6139 22.7035 23.7212 23.4135 23.7356C23.5096 23.7356 23.5897 23.7036 23.6538 23.6395C23.7179 23.5754 23.75 23.4953 23.75 23.3991V20.8895C23.75 20.7613 23.7179 20.6571 23.6538 20.577C23.5897 20.4969 23.4936 20.4408 23.3654 20.4087L21.0529 19.9352C20.9567 19.9031 20.8726 19.8991 20.8005 19.9232C20.7284 19.9472 20.6522 19.9993 20.5721 20.0794L18.2139 22.4856Z" fill="white"/>
</svg>
