<svg width="30" height="30" viewBox="0 0 30 30" fill="none" xmlns="http://www.w3.org/2000/svg">
    <path d="M15.625 14.7404V9.375C15.625 9.19792 15.565 9.04948 15.4451 8.92969C15.3251 8.8099 15.1765 8.75 14.9992 8.75C14.8218 8.75 14.6735 8.8099 14.5541 8.92969C14.4347 9.04948 14.375 9.19792 14.375 9.375V14.8486C14.375 14.9762 14.3982 15.0999 14.4447 15.2195C14.4912 15.3392 14.5689 15.4535 14.6779 15.5625L19.1154 20C19.2324 20.117 19.3758 20.1795 19.5457 20.1875C19.7155 20.1955 19.867 20.133 20 20C20.133 19.867 20.1995 19.7195 20.1995 19.5577C20.1995 19.3958 20.133 19.2484 20 19.1154L15.625 14.7404ZM15.0042 26.25C13.4485 26.25 11.9859 25.9548 10.6164 25.3644C9.24685 24.774 8.05555 23.9727 7.04247 22.9606C6.02941 21.9485 5.2274 20.7583 4.63644 19.3901C4.04548 18.0218 3.75 16.5599 3.75 15.0042C3.75 13.4485 4.0452 11.9859 4.63559 10.6164C5.22601 9.24685 6.02728 8.05555 7.03941 7.04247C8.05153 6.02941 9.24171 5.2274 10.6099 4.63644C11.9782 4.04548 13.4401 3.75 14.9958 3.75C16.5515 3.75 18.0141 4.0452 19.3836 4.63559C20.7531 5.22601 21.9444 6.02728 22.9575 7.03941C23.9706 8.05153 24.7726 9.24171 25.3636 10.6099C25.9545 11.9782 26.25 13.4401 26.25 14.9958C26.25 16.5515 25.9548 18.0141 25.3644 19.3836C24.774 20.7531 23.9727 21.9444 22.9606 22.9575C21.9485 23.9706 20.7583 24.7726 19.3901 25.3636C18.0218 25.9545 16.5599 26.25 15.0042 26.25ZM15 25C17.7708 25 20.1302 24.026 22.0781 22.0781C24.026 20.1302 25 17.7708 25 15C25 12.2292 24.026 9.86979 22.0781 7.92188C20.1302 5.97396 17.7708 5 15 5C12.2292 5 9.86979 5.97396 7.92188 7.92188C5.97396 9.86979 5 12.2292 5 15C5 17.7708 5.97396 20.1302 7.92188 22.0781C9.86979 24.026 12.2292 25 15 25Z" fill="#EF5F21"/>
</svg>
