<svg width="30" height="30" viewBox="0 0 30 30" fill="none" xmlns="http://www.w3.org/2000/svg">
    <path d="M23.6635 25C21.5561 25 19.3958 24.4724 17.1827 23.4171C14.9695 22.3618 12.9134 20.8806 11.0144 18.9736C9.11536 17.0665 7.63821 15.0104 6.58294 12.8053C5.52765 10.6002 5 8.44391 5 6.33653C5 5.95466 5.125 5.63644 5.375 5.38187C5.625 5.12729 5.9375 5 6.3125 5H9.40384C9.74359 5 10.0401 5.10697 10.2933 5.32091C10.5465 5.53484 10.718 5.80928 10.8077 6.14422L11.4279 9.125C11.4856 9.47435 11.4752 9.77965 11.3966 10.0409C11.3181 10.3021 11.1795 10.516 10.9808 10.6827L8.23797 13.2404C8.7508 14.1715 9.31772 15.0365 9.93872 15.8353C10.5597 16.6342 11.2219 17.391 11.9255 18.1058C12.6514 18.8317 13.4327 19.5068 14.2692 20.131C15.1058 20.7552 16.024 21.3446 17.024 21.899L19.6971 19.1779C19.9006 18.9583 20.1294 18.8137 20.3834 18.744C20.6374 18.6743 20.9183 18.6602 21.226 18.7019L23.8558 19.2404C24.1955 19.3237 24.4712 19.4948 24.6827 19.7536C24.8942 20.0124 25 20.3093 25 20.6442V23.6875C25 24.0625 24.8727 24.375 24.6181 24.625C24.3636 24.875 24.0453 25 23.6635 25ZM7.65144 12.0673L10.0505 9.86056C10.1306 9.79646 10.1827 9.70832 10.2067 9.59616C10.2308 9.48397 10.2268 9.3798 10.1947 9.28366L9.63941 6.63462C9.60736 6.50642 9.55128 6.41026 9.47116 6.34616C9.39103 6.28205 9.28686 6.25 9.15866 6.25H6.59375C6.4976 6.25 6.41748 6.28205 6.35337 6.34616C6.28927 6.41026 6.25722 6.49038 6.25722 6.58653C6.28126 7.4407 6.41507 8.33253 6.65866 9.26203C6.90224 10.1915 7.23317 11.1266 7.65144 12.0673ZM18.2139 22.4856C19.0585 22.9038 19.9587 23.2131 20.9147 23.4135C21.8706 23.6138 22.7035 23.7211 23.4135 23.7356C23.5096 23.7356 23.5897 23.7035 23.6538 23.6394C23.7179 23.5753 23.75 23.4952 23.75 23.399V20.8894C23.75 20.7612 23.7179 20.6571 23.6538 20.5769C23.5897 20.4968 23.4936 20.4407 23.3654 20.4087L21.0529 19.9351C20.9567 19.9031 20.8726 19.8991 20.8005 19.9231C20.7284 19.9471 20.6522 19.9992 20.5721 20.0793L18.2139 22.4856Z" fill="#EF5F21"/>
</svg>
