<svg width="30" height="30" viewBox="0 0 30 30" fill="none" xmlns="http://www.w3.org/2000/svg">
    <path d="M15 24.5962C17.3494 22.5513 19.2067 20.4716 20.5721 18.357C21.9375 16.2424 22.6202 14.4135 22.6202 12.8702C22.6202 10.5833 21.8962 8.69592 20.4483 7.20794C19.0004 5.71996 17.1843 4.97597 15 4.97597C12.8157 4.97597 10.9996 5.71996 9.5517 7.20794C8.10378 8.69592 7.37982 10.5833 7.37982 12.8702C7.37982 14.4135 8.06251 16.2424 9.42788 18.357C10.7933 20.4716 12.6507 22.5513 15 24.5962ZM15 25.6947C14.8045 25.6947 14.609 25.6627 14.4135 25.5986C14.218 25.5345 14.0377 25.4303 13.8726 25.2861C12.9832 24.4688 12.0817 23.5585 11.1683 22.5553C10.2548 21.5521 9.42507 20.5132 8.67907 19.4387C7.93309 18.3642 7.32172 17.2672 6.84495 16.1478C6.3682 15.0284 6.12982 13.9359 6.12982 12.8702C6.12982 10.226 6.9908 8.04487 8.71276 6.32691C10.4347 4.60897 12.5304 3.75 15 3.75C17.4696 3.75 19.5653 4.60897 21.2873 6.32691C23.0092 8.04487 23.8702 10.226 23.8702 12.8702C23.8702 13.9359 23.6318 15.0244 23.1551 16.1358C22.6783 17.2472 22.0709 18.3441 21.3329 19.4267C20.595 20.5092 19.7692 21.5481 18.8558 22.5433C17.9423 23.5385 17.0409 24.4447 16.1514 25.262C15.9921 25.4063 15.8111 25.5144 15.6083 25.5865C15.4056 25.6587 15.2028 25.6947 15 25.6947ZM15.0043 14.6635C15.5607 14.6635 16.0357 14.4653 16.4291 14.0691C16.8225 13.6728 17.0192 13.1964 17.0192 12.64C17.0192 12.0835 16.8211 11.6086 16.4249 11.2152C16.0286 10.8217 15.5522 10.625 14.9958 10.625C14.4393 10.625 13.9644 10.8231 13.5709 11.2194C13.1775 11.6157 12.9808 12.092 12.9808 12.6485C12.9808 13.205 13.1789 13.6799 13.5752 14.0733C13.9714 14.4668 14.4478 14.6635 15.0043 14.6635Z" fill="#EF5F21"/>
</svg>
