<svg
        width="60"
        height="60"
        viewBox="0 0 60 60"
        fill="none"
        xmlns="http://www.w3.org/2000/svg"
>
    <path
            d="M10.0147 26H7.05278C6.08269 26 5.17678 25.5152 4.63867 24.708L4.31253 24.2188C3.82562 23.4884 3.85221 22.5304 4.37889 21.8282C4.76989 21.3068 5.38352 21 6.03518 21L11.6586 21C13.1642 21 14.6107 21.5629 15.7246 22.5759C19.6408 26.1376 28.9477 34.5 30 34.5H52.901C53.5768 34.5 54.1909 34.8818 54.4931 35.4862C54.8025 36.1049 54.7263 36.8467 54.2977 37.3896L49.3017 43.7179C48.1638 45.1591 46.4287 46 44.5924 46H34.9853C33.394 46 31.8679 45.3679 30.7426 44.2427L14.2574 27.7574C13.1321 26.6322 11.606 26 10.0147 26Z"
            stroke="#EF5F21"
            stroke-width="2.5"
            stroke-linejoin="round"
    />
    <circle
            cx="34"
            cy="29"
            r="3.75"
            stroke="#EF5F21"
            stroke-width="2.5"
    />
    <circle
            cx="38"
            cy="21"
            r="3.75"
            stroke="#EF5F21"
            stroke-width="2.5"
    />
    <circle
            cx="42"
            cy="29"
            r="3.75"
            stroke="#EF5F21"
            stroke-width="2.5"
    />
    <circle
            cx="46"
            cy="21"
            r="3.75"
            stroke="#EF5F21"
            stroke-width="2.5"
    />
    <circle
            cx="42"
            cy="13"
            r="3.75"
            stroke="#EF5F21"
            stroke-width="2.5"
    />
    <circle
            cx="50"
            cy="29"
            r="3.75"
            stroke="#EF5F21"
            stroke-width="2.5"
    />
</svg>