<svg width="60" height="60" viewBox="0 0 60 60" fill="none" xmlns="http://www.w3.org/2000/svg">
    <path d="M43.4279 46.4663L41.7884 44.8269C41.5737 44.6122 41.3181 44.5048 41.0216 44.5048C40.7252 44.5048 40.4696 44.6122 40.2548 44.8269C40.0401 45.0417 39.9327 45.2949 39.9327 45.5866C39.9327 45.8782 40.0401 46.1314 40.2548 46.3462L42.4038 48.4952C42.7147 48.8061 43.0641 48.9616 43.4519 48.9616C43.8397 48.9616 44.1891 48.8061 44.5 48.4952L49.7452 43.3269C49.9599 43.1122 50.0753 42.8646 50.0914 42.5841C50.1074 42.3037 49.992 42.04 49.7452 41.7933C49.5304 41.5785 49.2668 41.4711 48.9543 41.4711C48.6418 41.4711 48.3782 41.5785 48.1634 41.7933L43.4279 46.4663ZM18.1731 21.8269H41.8269C42.1827 21.8269 42.48 21.7075 42.7188 21.4688C42.9575 21.23 43.0769 20.9327 43.0769 20.5769C43.0769 20.2211 42.645 19.9239 41.7812 19.6851C40.9175 19.4463 40.4039 19.3269 40.2404 19.3269H18.1731C17.8173 19.3269 17.52 19.4463 17.2812 19.6851C17.0425 19.9239 16.9231 20.2211 16.9231 20.5769C16.9231 20.9327 17.0425 21.23 17.2812 21.4688C17.52 21.7075 17.8173 21.8269 18.1731 21.8269ZM45 55.2885C42.2147 55.2885 39.8518 54.3181 37.9111 52.3774C35.9704 50.4367 35 48.0737 35 45.2884C35 42.5032 35.9704 40.1402 37.9111 38.1995C39.8518 36.2588 42.2147 35.2884 45 35.2884C47.7853 35.2884 50.1482 36.2588 52.0889 38.1995C54.0296 40.1402 55 42.5032 55 45.2884C55 48.0737 54.0296 50.4367 52.0889 52.3774C50.1482 54.3181 47.7853 55.2885 45 55.2885ZM10 51.8029V14.0384C10 12.9199 10.3934 11.9671 11.1803 11.1802C11.9671 10.3934 12.9199 10 14.0384 10H45.9616C47.0801 10 48.0329 10.3934 48.8198 11.1802C49.6066 11.9671 50 12.9199 50 14.0384V28.8991C49.593 28.7484 49.1891 28.6202 48.7884 28.5144C48.3878 28.4086 47.9583 28.3253 47.5 28.2644V14.0384C47.5 13.6539 47.3397 13.3013 47.0192 12.9808C46.6987 12.6603 46.3461 12.5 45.9616 12.5H14.0384C13.6539 12.5 13.3013 12.6603 12.9808 12.9808C12.6603 13.3013 12.5 13.6539 12.5 14.0384V47.625H28.3606C28.4727 48.3077 28.6194 48.976 28.8005 49.6298C28.9816 50.2837 29.234 50.907 29.5577 51.5C29.5096 51.5096 29.4591 51.5024 29.4062 51.4784C29.3534 51.4543 29.3077 51.4231 29.2693 51.3846L27.2211 49.9616C27.0352 49.8398 26.8398 49.7789 26.6346 49.7789C26.4295 49.7789 26.234 49.8398 26.0481 49.9616L23.8557 51.4808C23.6699 51.6026 23.4744 51.6635 23.2693 51.6635C23.0641 51.6635 22.8686 51.6026 22.6827 51.4808L20.4904 49.9616C20.3045 49.8398 20.109 49.7789 19.9038 49.7789C19.6987 49.7789 19.5032 49.8398 19.3173 49.9616L17.125 51.4808C16.9391 51.6026 16.7436 51.6635 16.5384 51.6635C16.3333 51.6635 16.1378 51.6026 15.9519 51.4808L13.7596 49.9616C13.5737 49.8398 13.3782 49.7789 13.1731 49.7789C12.9679 49.7789 12.7724 49.8398 12.5865 49.9616L10.6346 51.4808C10.5385 51.5449 10.3269 51.6523 10 51.8029ZM18.1731 40.6731H28.6971C28.7901 40.2147 28.9055 39.7853 29.0432 39.3846C29.1811 38.984 29.3414 38.5801 29.5241 38.1731H18.1731C17.8173 38.1731 17.52 38.2925 17.2812 38.5313C17.0425 38.77 16.9231 39.0673 16.9231 39.4231C16.9231 39.7789 17.0425 40.0761 17.2812 40.3149C17.52 40.5537 17.8173 40.6731 18.1731 40.6731ZM18.1731 31.25H35.2019C36.016 30.6058 36.8902 30.0681 37.8245 29.637C38.7588 29.2059 39.7564 28.9103 40.8173 28.75H18.1731C17.8173 28.75 17.52 28.8694 17.2812 29.1082C17.0425 29.3469 16.9231 29.6442 16.9231 30C16.9231 30.3558 17.0425 30.6531 17.2812 30.8918C17.52 31.1306 17.8173 31.25 18.1731 31.25Z" fill="#EF5F21"/>
</svg>

