<svg width="60" height="60" viewBox="0 0 60 60" fill="none" xmlns="http://www.w3.org/2000/svg">
    <path d="M20.2918 41.3462C20.8376 41.3462 21.2941 41.1616 21.6611 40.7923C22.0281 40.4231 22.2116 39.9655 22.2116 39.4197C22.2116 38.8739 22.0269 38.4175 21.6577 38.0505C21.2884 37.6835 20.8309 37.5 20.2851 37.5C19.7392 37.5 19.2828 37.6846 18.9159 38.0539C18.5489 38.4231 18.3654 38.8806 18.3654 39.4264C18.3654 39.9723 18.55 40.4287 18.9193 40.7957C19.2885 41.1627 19.746 41.3462 20.2918 41.3462ZM20.2918 31.9231C20.8376 31.9231 21.2941 31.7385 21.6611 31.3692C22.0281 31 22.2116 30.5425 22.2116 29.9966C22.2116 29.4508 22.0269 28.9944 21.6577 28.6274C21.2884 28.2604 20.8309 28.0769 20.2851 28.0769C19.7392 28.0769 19.2828 28.2615 18.9159 28.6308C18.5489 29 18.3654 29.4575 18.3654 30.0034C18.3654 30.5492 18.55 31.0056 18.9193 31.3726C19.2885 31.7396 19.746 31.9231 20.2918 31.9231ZM20.2918 22.5C20.8376 22.5 21.2941 22.3154 21.6611 21.9461C22.0281 21.5769 22.2116 21.1194 22.2116 20.5736C22.2116 20.0277 22.0269 19.5713 21.6577 19.2043C21.2884 18.8373 20.8309 18.6538 20.2851 18.6538C19.7392 18.6538 19.2828 18.8384 18.9159 19.2077C18.5489 19.5769 18.3654 20.0345 18.3654 20.5803C18.3654 21.1261 18.55 21.5825 18.9193 21.9495C19.2885 22.3165 19.746 22.5 20.2918 22.5ZM29.2307 40.6731H40.1923C40.5465 40.6731 40.8434 40.5531 41.0829 40.3132C41.3225 40.0733 41.4423 39.776 41.4423 39.4214C41.4423 39.0667 41.3225 38.77 41.0829 38.5312C40.8434 38.2925 40.5465 38.1731 40.1923 38.1731H29.2307C28.8766 38.1731 28.5797 38.293 28.3401 38.5329C28.1005 38.7729 27.9807 39.0701 27.9807 39.4247C27.9807 39.7794 28.1005 40.0761 28.3401 40.3149C28.5797 40.5537 28.8766 40.6731 29.2307 40.6731ZM29.2307 31.25H40.1923C40.5465 31.25 40.8434 31.13 41.0829 30.8901C41.3225 30.6502 41.4423 30.353 41.4423 29.9983C41.4423 29.6436 41.3225 29.3469 41.0829 29.1082C40.8434 28.8694 40.5465 28.75 40.1923 28.75H29.2307C28.8766 28.75 28.5797 28.87 28.3401 29.1099C28.1005 29.3498 27.9807 29.647 27.9807 30.0017C27.9807 30.3564 28.1005 30.6531 28.3401 30.8918C28.5797 31.1306 28.8766 31.25 29.2307 31.25ZM29.2307 21.8269H40.1923C40.5465 21.8269 40.8434 21.707 41.0829 21.4671C41.3225 21.2271 41.4423 20.9299 41.4423 20.5752C41.4423 20.2206 41.3225 19.9239 41.0829 19.6851C40.8434 19.4463 40.5465 19.3269 40.1923 19.3269H29.2307C28.8766 19.3269 28.5797 19.4469 28.3401 19.6867C28.1005 19.9267 27.9807 20.224 27.9807 20.5786C27.9807 20.9332 28.1005 21.23 28.3401 21.4688C28.5797 21.7075 28.8766 21.8269 29.2307 21.8269ZM14.0384 50C12.8878 50 11.9271 49.6146 11.1562 48.8438C10.3854 48.0729 10 47.1122 10 45.9616V14.0384C10 12.8878 10.3854 11.9271 11.1562 11.1562C11.9271 10.3854 12.8878 10 14.0384 10H45.9616C47.1122 10 48.0729 10.3854 48.8438 11.1562C49.6146 11.9271 50 12.8878 50 14.0384V45.9616C50 47.1122 49.6146 48.0729 48.8438 48.8438C48.0729 49.6146 47.1122 50 45.9616 50H14.0384ZM14.0384 47.5H45.9616C46.3461 47.5 46.6987 47.3397 47.0192 47.0192C47.3397 46.6987 47.5 46.3461 47.5 45.9616V14.0384C47.5 13.6539 47.3397 13.3013 47.0192 12.9808C46.6987 12.6603 46.3461 12.5 45.9616 12.5H14.0384C13.6539 12.5 13.3013 12.6603 12.9808 12.9808C12.6603 13.3013 12.5 13.6539 12.5 14.0384V45.9616C12.5 46.3461 12.6603 46.6987 12.9808 47.0192C13.3013 47.3397 13.6539 47.5 14.0384 47.5Z" fill="#EF5F21"/>
</svg>


