<svg width="60" height="60" viewBox="0 0 60 60" fill="none" xmlns="http://www.w3.org/2000/svg">
    <path d="M10 22.0192H50V16.5384C50 16.1539 49.8397 15.8013 49.5192 15.4808C49.1987 15.1603 48.8461 15 48.4616 15H11.5384C11.1539 15 10.8013 15.1603 10.4808 15.4808C10.1603 15.8013 10 16.1539 10 16.5384V22.0192ZM7.5 16.5384C7.5 15.3878 7.88542 14.4271 8.65625 13.6562C9.42708 12.8854 10.3878 12.5 11.5384 12.5H48.4616C49.6122 12.5 50.5729 12.8854 51.3438 13.6562C52.1146 14.4271 52.5 15.3878 52.5 16.5384V27.9808H10V43.4616C10 43.8461 10.1603 44.1987 10.4808 44.5192C10.8013 44.8397 11.1539 45 11.5384 45H21.9327C22.2884 45 22.5857 45.1194 22.8245 45.3582C23.0633 45.597 23.1827 45.8942 23.1827 46.25C23.1827 46.6058 23.0633 46.9031 22.8245 47.1418C22.5857 47.3806 22.2884 47.5 21.9327 47.5H11.5384C10.3878 47.5 9.42708 47.1146 8.65625 46.3438C7.88542 45.5729 7.5 44.6122 7.5 43.4616V16.5384ZM10 16.5384V45V35.1851V39.3702V15V16.5384ZM36.6058 47.7789L49.9279 34.4568C50.1715 34.2132 50.4607 34.0857 50.7957 34.0745C51.1306 34.0633 51.4359 34.1955 51.7116 34.4712C51.9776 34.7468 52.113 35.0417 52.1178 35.3558C52.1226 35.6699 51.9872 35.9648 51.7116 36.2404L38.0192 49.9327C37.6154 50.3366 37.1442 50.5385 36.6058 50.5385C36.0673 50.5385 35.5961 50.3366 35.1923 49.9327L28.5961 43.3366C28.3622 43.1026 28.2348 42.8181 28.2139 42.4832C28.1931 42.1482 28.3205 41.8429 28.5961 41.5673C28.8622 41.3013 29.1546 41.1682 29.4736 41.1682C29.7925 41.1682 30.0898 41.3013 30.3654 41.5673L36.6058 47.7789Z" fill="#EF5F21"/>
</svg>
