<svg
        width="60"
        height="60"
        viewBox="0 0 60 60"
        fill="none"
        xmlns="http://www.w3.org/2000/svg"
>
    <path
            d="M30 29.1875L26.0866 32.2452C25.8686 32.3894 25.6587 32.3919 25.4568 32.2524C25.2548 32.113 25.1955 31.9295 25.2788 31.7019L26.7596 26.7404L22.8654 23.9134C22.657 23.7692 22.6026 23.5777 22.7019 23.3389C22.8013 23.1001 22.9647 22.9808 23.1923 22.9808H28.0384L29.5193 18.0481C29.6026 17.8205 29.7628 17.7067 30 17.7067C30.2372 17.7067 30.3974 17.8205 30.4807 18.0481L31.9616 22.9808H36.7933C37.0208 22.9808 37.1867 23.1001 37.2909 23.3389C37.395 23.5777 37.343 23.7692 37.1346 23.9134L33.2259 26.7404L34.7067 31.7019C34.7901 31.9295 34.7308 32.113 34.5289 32.2524C34.3269 32.3919 34.117 32.3894 33.8991 32.2452L30 29.1875ZM30 49.9039L20.0913 52.8654C19.4503 53.093 18.8582 52.9968 18.3149 52.5769C17.7716 52.1571 17.5 51.6106 17.5 50.9375V37.1779C15.9167 35.6202 14.6875 33.7965 13.8125 31.7068C12.9375 29.617 12.5 27.3814 12.5 25C12.5 20.1218 14.1971 15.9856 17.5913 12.5913C20.9856 9.1971 25.1218 7.5 30 7.5C34.8782 7.5 39.0144 9.1971 42.4087 12.5913C45.8029 15.9856 47.5 20.1218 47.5 25C47.5 27.3814 47.0625 29.617 46.1875 31.7068C45.3125 33.7965 44.0833 35.6202 42.5 37.1779V50.9375C42.5 51.6106 42.2284 52.1571 41.6851 52.5769C41.1418 52.9968 40.5497 53.093 39.9087 52.8654L30 49.9039ZM30 40C34.1667 40 37.7083 38.5417 40.625 35.625C43.5417 32.7083 45 29.1667 45 25C45 20.8333 43.5417 17.2917 40.625 14.375C37.7083 11.4583 34.1667 10 30 10C25.8333 10 22.2917 11.4583 19.375 14.375C16.4583 17.2917 15 20.8333 15 25C15 29.1667 16.4583 32.7083 19.375 35.625C22.2917 38.5417 25.8333 40 30 40ZM20 50.1106L30 47.3077L40 50.1106V39.2837C38.6057 40.3093 37.0569 41.1018 35.3534 41.6611C33.6498 42.2204 31.8654 42.5 30 42.5C28.1346 42.5 26.3502 42.2204 24.6466 41.6611C22.9431 41.1018 21.3942 40.3093 20 39.2837V50.1106Z"
            fill="#EF5F21"
    />
</svg>