<svg
        width="60"
        height="60"
        viewBox="0 0 60 60"
        fill="none"
        xmlns="http://www.w3.org/2000/svg"
>
    <path
            d="M30.5 32.9182L34.6731 35.4568C35.0353 35.6843 35.3975 35.6659 35.7596 35.4014C36.1218 35.137 36.2564 34.7821 36.1634 34.3366L35.0577 29.6202L38.7308 26.4616C39.0833 26.1506 39.1923 25.7909 39.0577 25.3822C38.9231 24.9736 38.6282 24.7484 38.1731 24.7067L33.3317 24.2692L31.4327 19.8173C31.2564 19.4134 30.9455 19.2115 30.5 19.2115C30.0545 19.2115 29.7436 19.4134 29.5673 19.8173L27.6682 24.2692L22.8269 24.7067C22.3718 24.7484 22.0769 24.9736 21.9423 25.3822C21.8077 25.7909 21.9167 26.1506 22.2693 26.4616L25.9423 29.6202L24.8366 34.3366C24.7436 34.7821 24.8782 35.137 25.2404 35.4014C25.6025 35.6659 25.9647 35.6843 26.3269 35.4568L30.5 32.9182ZM15.6923 45L11.4327 49.2596C10.8013 49.891 10.0713 50.0361 9.24275 49.6947C8.41425 49.3534 8 48.7324 8 47.8317V14.0384C8 12.8878 8.38542 11.9271 9.15625 11.1562C9.92708 10.3854 10.8878 10 12.0384 10H48.9616C50.1122 10 51.0729 10.3854 51.8438 11.1562C52.6146 11.9271 53 12.8878 53 14.0384V40.9616C53 42.1122 52.6146 43.0729 51.8438 43.8438C51.0729 44.6146 50.1122 45 48.9616 45H15.6923ZM14.625 42.5H48.9616C49.3461 42.5 49.6987 42.3397 50.0192 42.0192C50.3397 41.6987 50.5 41.3461 50.5 40.9616V14.0384C50.5 13.6539 50.3397 13.3013 50.0192 12.9808C49.6987 12.6603 49.3461 12.5 48.9616 12.5H12.0384C11.6539 12.5 11.3013 12.6603 10.9808 12.9808C10.6603 13.3013 10.5 13.6539 10.5 14.0384V46.6106L14.625 42.5Z"
            fill="#EF5F21"
    />
</svg>