<svg
        width="60"
        height="60"
        viewBox="0 0 60 60"
        fill="none"
        xmlns="http://www.w3.org/2000/svg"
>
    <path
            d="M16.2068 50C15.3445 50 14.5376 49.7147 13.7861 49.1442C13.0344 48.5737 12.5449 47.8734 12.3173 47.0433C11.2756 43.351 10.4455 40.2877 9.82694 37.8534C9.20831 35.4191 8.72512 33.3614 8.37737 31.6803C8.02962 29.9992 7.79646 28.5609 7.67788 27.3654C7.55929 26.1699 7.5 24.9648 7.5 23.75C7.5 20.6218 8.59294 17.9647 10.7788 15.7788C12.9647 13.5929 15.6218 12.5 18.75 12.5H32.5C33.625 11 34.9479 9.79167 36.4688 8.875C37.9896 7.95833 39.5833 7.5 41.25 7.5C41.5865 7.5 41.879 7.62419 42.1274 7.87256C42.3758 8.12098 42.5 8.41346 42.5 8.75C42.5 8.83975 42.4848 8.92148 42.4543 8.99519C42.4239 9.06889 42.3991 9.16185 42.3798 9.27406C42.1811 9.79648 41.9848 10.399 41.7909 11.0817C41.597 11.7644 41.3942 12.7131 41.1827 13.9279L48.5048 21.25H50.4808C51.0609 21.25 51.5425 21.4415 51.9255 21.8245C52.3085 22.2075 52.5 22.6891 52.5 23.2692V32.8846C52.5 33.3301 52.3758 33.7292 52.1274 34.0818C51.879 34.4343 51.5321 34.6827 51.0866 34.8269L45.9183 36.5289L42.7452 47.1106C42.476 48.0016 41.984 48.7059 41.2692 49.2236C40.5545 49.7412 39.7468 50 38.8462 50H36.5384C35.4199 50 34.4671 49.6066 33.6802 48.8197C32.8934 48.0329 32.5 47.0801 32.5 45.9616V45H22.5V45.9616C22.5 47.0801 22.1066 48.0329 21.3197 48.8197C20.5329 49.6066 19.5801 50 18.4616 50H16.2068ZM16.25 47.5H18.4616C18.9103 47.5 19.2789 47.3558 19.5673 47.0673C19.8558 46.7789 20 46.4103 20 45.9616V42.5H35V45.9616C35 46.4103 35.1442 46.7789 35.4327 47.0673C35.7211 47.3558 36.0897 47.5 36.5384 47.5H38.8462C39.1987 47.5 39.5112 47.4039 39.7836 47.2116C40.0561 47.0192 40.2404 46.7468 40.3366 46.3942L43.875 34.625L50 32.5625V23.75H47.5L38.75 15C38.75 14.2628 38.8101 13.4664 38.9303 12.6106C39.0505 11.7548 39.2308 10.984 39.4711 10.2981C38.359 10.5994 37.3205 11.1963 36.3558 12.0889C35.391 12.9816 34.6682 13.9519 34.1875 15H18.75C16.3333 15 14.2708 15.8542 12.5625 17.5625C10.8542 19.2708 10 21.3333 10 23.75C10 25.3943 10.4055 28.1771 11.2164 32.0986C12.0273 36.02 13.1763 40.7532 14.6634 46.2981C14.7596 46.6506 14.9599 46.9391 15.2644 47.1634C15.5689 47.3878 15.8974 47.5 16.25 47.5ZM40 26.9231C40.516 26.9231 40.9656 26.7316 41.3486 26.3486C41.7316 25.9656 41.9231 25.516 41.9231 25C41.9231 24.484 41.7316 24.0344 41.3486 23.6514C40.9656 23.2684 40.516 23.0769 40 23.0769C39.484 23.0769 39.0344 23.2684 38.6514 23.6514C38.2684 24.0344 38.0769 24.484 38.0769 25C38.0769 25.516 38.2684 25.9656 38.6514 26.3486C39.0344 26.7316 39.484 26.9231 40 26.9231ZM31.25 21.25C31.6057 21.25 31.903 21.1306 32.1418 20.8918C32.3806 20.6531 32.5 20.3558 32.5 20C32.5 19.6442 32.3806 19.3469 32.1418 19.1082C31.903 18.8694 31.6057 18.75 31.25 18.75H21.25C20.8942 18.75 20.597 18.8694 20.3582 19.1082C20.1194 19.3469 20 19.6442 20 20C20 20.3558 20.1194 20.6531 20.3582 20.8918C20.597 21.1306 20.8942 21.25 21.25 21.25H31.25Z"
            fill="#EF5F21"
    />
</svg>