<svg width="30" height="30" viewBox="0 0 30 30" fill="none" xmlns="http://www.w3.org/2000/svg">
    <path d="M13.3846 15L18.6923 20.3077C18.8093 20.4247 18.8718 20.5681 18.8798 20.738C18.8878 20.9078 18.8253 21.0593 18.6923 21.1923C18.5593 21.3253 18.4119 21.3918 18.25 21.3918C18.0881 21.3918 17.9407 21.3253 17.8077 21.1923L12.3221 15.7067C12.2131 15.5978 12.1366 15.4864 12.0925 15.3726C12.0485 15.2588 12.0264 15.1346 12.0264 15C12.0264 14.8654 12.0485 14.7412 12.0925 14.6274C12.1366 14.5136 12.2131 14.4022 12.3221 14.2933L17.8077 8.80769C17.9247 8.69071 18.0681 8.62821 18.238 8.62019C18.4078 8.61217 18.5593 8.67467 18.6923 8.80769C18.8253 8.94071 18.8918 9.08815 18.8918 9.25C18.8918 9.41186 18.8253 9.55929 18.6923 9.69231L13.3846 15Z" fill="white"/>
</svg>
