<svg width="30" height="30" viewBox="0 0 30 30" fill="none" xmlns="http://www.w3.org/2000/svg">
    <path d="M16.6154 15L11.3077 9.69231C11.1907 9.57533 11.1282 9.4319 11.1202 9.26203C11.1122 9.09215 11.1747 8.94071 11.3077 8.80769C11.4407 8.67467 11.5881 8.60815 11.75 8.60815C11.9119 8.60815 12.0593 8.67467 12.1923 8.80769L17.6779 14.2933C17.7869 14.4022 17.8634 14.5136 17.9075 14.6274C17.9515 14.7412 17.9736 14.8654 17.9736 15C17.9736 15.1346 17.9515 15.2588 17.9075 15.3726C17.8634 15.4864 17.7869 15.5978 17.6779 15.7067L12.1923 21.1923C12.0753 21.3093 11.9319 21.3718 11.762 21.3798C11.5922 21.3878 11.4407 21.3253 11.3077 21.1923C11.1747 21.0593 11.1082 20.9119 11.1082 20.75C11.1082 20.5881 11.1747 20.4407 11.3077 20.3077L16.6154 15Z" fill="#EF5F21"/>
</svg>
