<svg width="30" height="30" viewBox="0 0 30 30" fill="none" xmlns="http://www.w3.org/2000/svg">
    <path d="M15 21.1058C16.0355 21.1058 16.9907 20.8662 17.8656 20.387C18.7404 19.9079 19.457 19.258 20.0152 18.4375C20.1269 18.2324 20.1298 18.0248 20.024 17.8149C19.9183 17.605 19.7436 17.5 19.5 17.5H10.5C10.2564 17.5 10.0817 17.605 9.97597 17.8149C9.8702 18.0248 9.87314 18.2324 9.98478 18.4375C10.543 19.258 11.264 19.9079 12.1478 20.387C13.0316 20.8662 13.9823 21.1058 15 21.1058ZM11.125 11.8606L12.0938 12.8293C12.2011 12.9367 12.3277 12.9944 12.4736 13.0024C12.6194 13.0104 12.754 12.9527 12.8774 12.8293C13.0008 12.7059 13.0613 12.5753 13.0589 12.4375C13.0565 12.2997 12.996 12.1691 12.8774 12.0457L11.8317 10.9928C11.633 10.7909 11.397 10.6899 11.1238 10.6899C10.8506 10.6899 10.613 10.7909 10.4111 10.9928L9.35816 12.0457C9.2508 12.153 9.19311 12.2796 9.18509 12.4255C9.17707 12.5713 9.23712 12.7083 9.36525 12.8364C9.47912 12.9503 9.60618 13.0084 9.74641 13.0108C9.88661 13.0132 10.0184 12.9551 10.1418 12.8365L11.125 11.8606ZM18.875 11.8606L19.8582 12.8365C19.9655 12.9391 20.0921 12.9944 20.238 13.0024C20.3838 13.0104 20.5184 12.9527 20.6418 12.8293C20.7652 12.7059 20.8269 12.5753 20.8269 12.4375C20.8269 12.2997 20.7652 12.1691 20.6418 12.0457L19.5889 10.9928C19.3902 10.7909 19.1543 10.6899 18.881 10.6899C18.6078 10.6899 18.3702 10.7909 18.1683 10.9928L17.1154 12.0457C17.0128 12.153 16.9575 12.2796 16.9495 12.4255C16.9415 12.5713 16.9992 12.7059 17.1226 12.8293C17.246 12.9527 17.3766 13.0144 17.5144 13.0144C17.6522 13.0144 17.7829 12.9527 17.9062 12.8293L18.875 11.8606ZM15.0042 26.25C13.4485 26.25 11.9859 25.9548 10.6164 25.3644C9.24685 24.774 8.05555 23.9727 7.04247 22.9606C6.02941 21.9485 5.2274 20.7583 4.63644 19.3901C4.04548 18.0218 3.75 16.5599 3.75 15.0042C3.75 13.4485 4.0452 11.9859 4.63559 10.6164C5.22601 9.24685 6.02728 8.05555 7.03941 7.04247C8.05153 6.02941 9.24171 5.2274 10.6099 4.63644C11.9782 4.04548 13.4401 3.75 14.9958 3.75C16.5515 3.75 18.0141 4.0452 19.3836 4.63559C20.7531 5.22601 21.9444 6.02728 22.9575 7.03941C23.9706 8.05153 24.7726 9.24171 25.3636 10.6099C25.9545 11.9782 26.25 13.4401 26.25 14.9958C26.25 16.5515 25.9548 18.0141 25.3644 19.3836C24.774 20.7531 23.9727 21.9444 22.9606 22.9575C21.9485 23.9706 20.7583 24.7726 19.3901 25.3636C18.0218 25.9545 16.5599 26.25 15.0042 26.25ZM15 25C17.7917 25 20.1562 24.0312 22.0938 22.0938C24.0312 20.1562 25 17.7917 25 15C25 12.2083 24.0312 9.84375 22.0938 7.90625C20.1562 5.96875 17.7917 5 15 5C12.2083 5 9.84375 5.96875 7.90625 7.90625C5.96875 9.84375 5 12.2083 5 15C5 17.7917 5.96875 20.1562 7.90625 22.0938C9.84375 24.0312 12.2083 25 15 25Z" fill="#EF5F21"/>
</svg>
